<?xml version="1.0" encoding="UTF-8"?>
<svg id="Laag_2" data-name="Laag 2" xmlns="http://www.w3.org/2000/svg" viewBox="0 0 1168.54 624.88">
  <defs>
    <style>
      .cls-1 {
        fill: #f4c216;
      }

      .cls-1, .cls-2 {
        stroke-width: 0px;
      }

      .cls-2 {
        fill: #090909;
      }
    </style>
  </defs>
  <g>
    <path class="cls-1" d="M584.47,539.25c190.14,0,380.29,0,570.43,0,3.67,0,7.33.06,11,.07,2.7,0,2.73,1.75,2.61,3.75-.14,2.36-1.4,3.58-3.55,2.8-5.67-2.05-11.5-.79-17.18-.79-379.12-.13-758.24-.11-1137.36-.11-2.5,0-5-.08-7.5-.07-1.82,0-2.88-.84-2.92-2.64-.05-1.99.91-3.08,3.05-3.03,2.5.06,5-.02,7.5-.02,191.31,0,382.62,0,573.93,0v.03Z"/>
    <path class="cls-1" d="M583.44,523.02c189.79,0,379.59,0,569.38,0,3.5,0,7-.1,10.5.02,1.68.05,4.15-.48,4.01,2.36-.14,2.85-2.67,1.88-4.27,1.99-2.82.2-5.66.09-8.49.09-382.25,0-764.5-.02-1146.76-.03-.5,0-1.04.12-1.49-.02-1.88-.61-5.49,1.71-5.3-2.3.17-3.67,3.63-2.01,5.56-2.01,192.29-.08,384.59-.08,576.88-.08Z"/>
    <path class="cls-2" d="M1101.01,402.97c0,20.64-.13,40.11.1,59.58.05,4.05-.79,5.91-5.07,5.19-1.13-.19-2.35-.16-3.49.02-3.7.58-4.36-1.2-4.34-4.53.12-26.49.03-52.99.14-79.48,0-1.84-1.56-5.1,1.58-5.37,2.98-.25,6.61-1.82,9.14,1.82,8.17,11.75,16.45,23.43,24.7,35.12,5.38,7.62,10.76,15.23,16.18,22.82.63.88,1.16,2.3,2.59,1.86,1.79-.55,1.05-2.16,1.05-3.4-.04-18.16,0-36.32-.23-54.47-.04-3.46,1.13-4.06,4.25-4.02,8.58.13,8.59,0,8.59,8.58,0,25.16.04,50.32-.08,75.48,0,1.83,1.63,5.09-1.57,5.36-3.14.27-6.74,1.59-9.45-2.31-12.63-18.18-25.51-36.19-38.31-54.25-1.7-2.39-3.43-4.76-5.78-8ZM1143.05,439.51c-.39.91-.71,1.29-.65,1.61.07.41.48,1.09.69,1.07.65-.06,1.01-.59.79-1.28-.13-.38-.41-.72-.83-1.41Z"/>
    <path class="cls-2" d="M311.33,423.1c-.14,21.66-10.44,37.75-28,43.47-30.6,9.97-58.07-11.56-56.87-44.51.54-14.86,5.4-27.39,17.45-37,16.37-13.06,52.91-12.53,64.42,19.88.94,2.65,1.58,5.45,2.02,8.23.52,3.28.66,6.62.97,9.93ZM298.26,423.05c-.04-4.17-.4-8.32-1.45-12.37-3.53-13.54-13.5-21.89-26.58-22.29-14.11-.44-24.44,6.95-28.88,20.65-1.35,4.16-1.79,8.48-1.91,12.79-.28,9.92,1.95,19.17,8.33,27.04,11.04,13.61,35.04,11.85,44.38-3.03,4.42-7.04,6.15-14.64,6.11-22.79Z"/>
    <path class="cls-2" d="M659.07,422.83c0-13.48.08-26.97-.06-40.45-.03-3.08.53-4.41,4.05-4.23,9.13.46,18.31-.44,27.43.73,25.04,3.2,39.53,20.02,38.98,45.23-.56,26.07-15.06,41.45-41.18,43.2-8.62.58-17.3.21-25.95.51-3.29.12-3.31-1.63-3.3-4.03.06-13.65.03-27.3.03-40.95ZM672.01,422.97h-.02c0,6.65,0,13.3,0,19.95,0,15.88.01,15.99,16.03,14.17,9.55-1.08,18.49-3.93,23.29-13.17,7.15-13.76,7.02-27.78-.14-41.56-1.94-3.74-5.22-6.38-8.92-8.48-8.16-4.64-17.1-4.82-26.12-4.96-3.2-.05-4.29.72-4.2,4.12.24,9.97.09,19.95.09,29.93Z"/>
    <path class="cls-2" d="M879.16,422.61c0-13.49.07-26.99-.06-40.48-.03-2.94.6-4.06,3.84-4.02,16.82.17,33.65.14,50.47.02,2.75-.02,4.02.6,3.62,3.52-.18,1.31-.18,2.68,0,3.99.42,3.16-.62,4.25-4.01,4.19-12.16-.22-24.32.02-36.48-.16-3.33-.05-4.74.63-4.55,4.33.32,6.15.21,12.33.02,18.48-.09,2.91,1,3.69,3.75,3.65,8.99-.13,17.99.07,26.98-.11,2.69-.05,3.32.75,3.36,3.34.09,7.4.22,7.41-7.21,7.41-7.66,0-15.33.1-22.99-.09-3.06-.08-4,.89-3.91,3.97.22,7.32.22,14.66,0,21.99-.09,3.07.78,3.96,3.88,3.91,12.16-.18,24.32.07,36.48-.15,3.61-.07,4.92.66,4.73,4.57-.33,6.77-.06,6.78-6.9,6.78-15.66,0-31.32-.1-46.97.07-3.36.04-4.19-.97-4.14-4.23.18-13.66.08-27.32.08-40.98Z"/>
    <path class="cls-2" d="M76.26,445.65c0,6-.04,12,.02,17.99.02,1.96.02,3.41-2.62,3.78-12.65,1.8-25.29,2.46-37.56-1.78-18.26-6.31-26.57-20.26-28.02-38.71-2.18-27.79,14.8-47.11,42.65-49.06,6.33-.44,12.64-.23,18.97.1,2.81.15,3.56,1.11,3.58,3.87.08,8.7.21,8.63-8.56,8.1-7.5-.45-15.02-.59-22.33,1.54-11.71,3.41-18.69,11.19-20.48,23.27-1.63,11.05-.4,21.57,6.68,30.83,6.76,8.83,21.99,14.25,32.82,11.7,2.28-.54,1.85-1.94,1.86-3.34.04-8.66.19-17.33-.01-25.99-.08-3.16.92-3.88,3.95-3.87,9.03.03,9.03-.11,9.03,9.07,0,4.16,0,8.33,0,12.49Z"/>
    <path class="cls-2" d="M460.45,422.48c0-13.31.11-26.63-.08-39.94-.05-3.44.81-4.54,4.4-4.44,8.55.23,8.55.03,8.54,8.66,0,21.8.08,43.61-.1,65.41-.03,3.51.92,4.49,4.4,4.41,9.98-.23,19.97,0,29.95-.15,3.06-.05,4.44.49,4.27,4.06-.43,8.68,1,7.18-7.03,7.23-13.31.09-26.63-.11-39.94.1-3.46.05-4.56-.79-4.51-4.38.21-13.64.08-27.29.08-40.94Z"/>
    <path class="cls-2" d="M410.26,604.03c-.3,12.82-8.11,20.96-19.84,20.66-11.76-.3-19.38-8.87-19.12-21.5.26-12.54,8.35-20.71,20.21-20.39,11.49.31,19.04,8.86,18.75,21.23ZM404.28,602.76c-.02-.19-.05-1.86-.33-3.49-1.16-6.81-5.92-11.2-12.37-11.51-6.88-.33-11.85,3.56-13.66,10.54-1.08,4.16-.84,8.28.41,12.28,2.55,8.15,12.27,11.8,19.39,7.35,5.03-3.15,6.51-8.11,6.56-15.17Z"/>
    <path class="cls-2" d="M482.58,613.9q0,11.55-11.9,10.61c-12.66-1-19.72-8.84-19.62-21.78.09-11.12,7.7-18.8,19.65-19.69,2.48-.18,4.99.08,7.48-.05,2.51-.14,2.97,1.07,2.99,3.3.03,2.7-1.36,2.34-3.16,2.13-1.97-.22-3.99-.21-5.98-.11-9.83.46-15.2,6.15-14.81,15.61.4,9.78,6.26,15.38,15.82,15.51,2.99.04,3.75-1.03,3.58-3.74-.18-2.82.06-5.66-.07-8.48-.1-2.15.2-3.31,2.88-3.36,2.87-.04,3.35,1.14,3.16,3.56-.17,2.15-.04,4.32-.04,6.48Z"/>
    <path class="cls-2" d="M840.05,624.28c-1.83,0-3.67-.13-5.49.03-2.84.25-3.29-1.29-3.22-3.64.08-2.85,1.82-1.99,3.44-1.83,4.48.45,8.96.81,13.38-.55,2.21-.68,4.04-1.84,4.3-4.29.24-2.26-1.26-3.76-3.07-4.75-3.65-1.98-7.39-3.8-11.08-5.71-5.49-2.83-8.37-7.21-7.41-11.79,1.12-5.39,5.34-7.32,10.13-8.3,4.28-.87,8.62-.42,12.95-.38,2.91.02,2.6,1.83,2.6,3.68,0,2.54-1.67,1.84-3.13,1.68-3.65-.4-7.32-.57-10.96.05-2.47.43-5.14,1.01-5.62,4.06-.47,2.98,1.58,4.54,3.94,5.7,3.44,1.68,6.94,3.23,10.35,4.98,5.21,2.68,7.76,6.82,7.22,11.42-.56,4.71-3.9,7.96-9.87,9.16-2.76.55-5.62.58-8.43.85,0-.12-.01-.24-.02-.36Z"/>
    <path class="cls-2" d="M583.77,624.51c-2-.1-4-.31-5.99-.25-2.92.09-2.58-1.93-2.6-3.74-.03-2.39,1.43-1.93,3.05-1.75,4.63.53,9.29.94,13.86-.52,2.21-.7,3.99-1.89,4.21-4.37.21-2.3-1.32-3.7-3.14-4.68-3.66-1.96-7.39-3.78-11.07-5.71-5.58-2.92-8.25-7.1-7.3-11.82,1.1-5.45,5.41-7.23,10.16-8.23,4.11-.86,8.29-.43,12.45-.42,2.52,0,2.98,1.13,3,3.34.03,2.81-1.55,2.12-3.25,2.05-3.48-.16-6.99-.27-10.46,0-2.68.2-5.51,1.01-5.98,4.26-.42,2.95,1.74,4.46,4.1,5.61,3.59,1.75,7.2,3.45,10.77,5.24,4.61,2.31,7.1,6,6.59,11.24-.49,5.06-4.12,7.27-8.49,8.68-3.23,1.04-6.57.91-9.89,1.07Z"/>
    <path class="cls-2" d="M783.24,624.52c-9.7-.07-17.37-2.55-21.11-11.09-3.52-8.05-3.53-16.28,2.52-23.44,5.92-7,14.04-7.42,22.4-6.92,2.44.15,1.75,1.87,1.89,3.24.18,1.72-.47,2.31-2.27,2.19-2.64-.17-5.34-.27-7.96.06-7.65.95-12.21,6.04-12.55,13.69-.39,8.7,3.76,14.58,11.47,16.3,3.13.7,6.28.67,9.42.27,1.67-.21,3.04-.4,2.86,1.96-.12,1.57.51,3.5-2.17,3.52-1.83.01-3.65.17-4.49.21Z"/>
    <path class="cls-2" d="M659.89,606.47c0,4.99-.15,10,.07,14.98.12,2.78-1.31,2.77-3.34,2.87-2.24.11-2.8-.71-2.77-2.84.1-9.66-.09-19.32.13-28.97.07-3.23-.75-4.61-4.09-4.23-1.81.21-3.67-.08-5.49.07-2.07.17-3.06-.38-3.01-2.69.05-1.99.81-2.55,2.69-2.54,8.49.07,16.98.07,25.47,0,1.86-.02,2.67.47,2.72,2.49.05,2.24-.83,2.71-2.94,2.79-3.06.1-7.22-1.61-8.89.83-1.49,2.19-.49,6.1-.54,9.25-.04,2.66,0,5.33,0,7.99Z"/>
    <path class="cls-2" d="M314.58,600.92c0,4.49.27,8.99-.09,13.45-.33,4.09,1.27,5.14,5.05,4.79,3.29-.31,6.64.01,9.96-.1,1.83-.06,2.72.34,2.72,2.43,0,2.12-.61,2.89-2.84,2.84-5.98-.15-11.96-.15-17.94-.02-2.19.05-2.88-.68-2.86-2.84.08-11.79.08-23.59,0-35.38-.01-2.02.34-3.06,2.7-2.98,2.08.08,3.45.16,3.35,2.87-.19,4.98-.05,9.97-.06,14.95Z"/>
    <path class="cls-2" d="M712.85,603.62c0-5.82.1-11.64-.05-17.45-.07-2.45.77-3.07,3.14-3.1,2.56-.03,3,1,2.98,3.26-.1,11.63-.11,23.27,0,34.9.02,2.4-.69,3.1-3.12,3.11-2.6.02-3.02-1.06-2.98-3.28.11-5.82.04-11.63.03-17.45Z"/>
    <path class="cls-2" d="M525.83,603.69c0-5.83.1-11.66-.05-17.48-.06-2.37.58-3.18,3.06-3.13,2.42.05,3.07.81,3.05,3.18-.11,11.65-.12,23.31.01,34.97.03,2.48-.83,3.04-3.14,3.14-2.58.11-3.03-.91-2.97-3.18.14-5.82.05-11.65.04-17.48Z"/>
  </g>
  <path class="cls-1" d="M581.97,0l-148.02,49.15,149.91,327.9L733.76,50.09,581.97,0ZM581.97,109.61l-125.13-51.67,125.13-43.06,128.87,43.06-126.98,278.55-1.88-226.88Z"/>
</svg>