<?xml version="1.0" encoding="UTF-8"?>
<svg id="Laag_2" data-name="Laag 2" xmlns="http://www.w3.org/2000/svg" viewBox="0 0 2082.44 377.06">
  <defs>
    <style>
      .cls-1 {
        fill: #f4c216;
      }

      .cls-1, .cls-2 {
        stroke-width: 0px;
      }

      .cls-2 {
        fill: #090909;
      }
    </style>
  </defs>
  <g>
    <path class="cls-1" d="M1264.59,257.15c266.25,0,532.5,0,798.75,0,5.13,0,10.26.09,15.4.1,3.78,0,3.82,2.45,3.66,5.26-.19,3.31-1.95,5.01-4.97,3.92-7.95-2.87-16.1-1.1-24.05-1.11-530.86-.18-1061.73-.16-1592.59-.15-3.5,0-7-.11-10.5-.1-2.54.01-4.03-1.17-4.09-3.7-.07-2.78,1.27-4.31,4.26-4.24,3.5.08,7-.02,10.5-.02,267.88,0,535.76,0,803.65,0v.04Z"/>
    <path class="cls-1" d="M1263.14,234.42c265.76,0,531.52,0,797.28,0,4.9,0,9.8-.14,14.7.02,2.35.08,5.82-.67,5.62,3.31-.2,3.99-3.75,2.63-5.98,2.78-3.95.27-7.93.12-11.89.12-535.25-.01-1070.5-.02-1605.75-.04-.7,0-1.46.17-2.09-.03-2.63-.86-7.69,2.39-7.43-3.23.24-5.14,5.08-2.82,7.78-2.82,269.26-.12,538.52-.11,807.78-.11Z"/>
    <path class="cls-2" d="M1987.88,66.32c0,28.9-.18,56.17.14,83.43.07,5.68-1.11,8.28-7.1,7.27-1.59-.27-3.29-.23-4.89.02-5.19.81-6.1-1.68-6.08-6.34.17-37.1.04-74.2.2-111.3.01-2.58-2.18-7.15,2.21-7.52,4.17-.35,9.26-2.55,12.8,2.55,11.44,16.46,23.04,32.81,34.59,49.18,7.53,10.67,15.07,21.32,22.66,31.95.88,1.24,1.63,3.22,3.62,2.6,2.51-.77,1.48-3.03,1.47-4.75-.05-25.43,0-50.85-.32-76.28-.06-4.84,1.58-5.69,5.94-5.62,12.02.18,12.02-.01,12.02,12.01,0,35.23.05,70.46-.11,105.7-.01,2.56,2.28,7.12-2.2,7.51-4.4.38-9.44,2.23-13.23-3.24-17.68-25.46-35.72-50.67-53.64-75.97-2.37-3.35-4.81-6.66-8.1-11.21ZM2046.74,117.48c-.54,1.27-.99,1.81-.91,2.26.1.57.67,1.52.97,1.5.92-.08,1.42-.82,1.1-1.79-.18-.54-.58-1-1.16-1.97Z"/>
    <path class="cls-2" d="M882.12,94.5c-.2,30.32-14.63,52.86-39.2,60.87-42.85,13.96-81.32-16.19-79.63-62.33.76-20.8,7.56-38.35,24.44-51.81,22.92-18.29,74.09-17.54,90.21,27.84,1.32,3.71,2.21,7.63,2.83,11.53.72,4.59.93,9.27,1.36,13.91ZM863.81,94.44c-.06-5.84-.56-11.64-2.03-17.31-4.94-18.95-18.91-30.65-37.23-31.22-19.76-.62-34.22,9.73-40.44,28.91-1.89,5.82-2.5,11.88-2.67,17.91-.39,13.89,2.73,26.85,11.67,37.86,15.46,19.06,49.07,16.6,62.14-4.25,6.18-9.85,8.62-20.49,8.56-31.91Z"/>
    <path class="cls-2" d="M1369.05,94.14c0-18.88.11-37.76-.09-56.64-.04-4.32.74-6.17,5.67-5.93,12.79.64,25.64-.61,38.41,1.02,35.07,4.48,55.35,28.03,54.59,63.33-.79,36.51-21.09,58.03-57.67,60.5-12.07.81-24.23.29-36.34.71-4.61.16-4.63-2.28-4.61-5.64.09-19.11.04-38.23.04-57.34ZM1387.16,94.33h-.03c0,9.31,0,18.63,0,27.94,0,22.24.02,22.39,22.45,19.85,13.38-1.52,25.89-5.51,32.61-18.45,10.01-19.27,9.83-38.9-.19-58.19-2.72-5.23-7.31-8.93-12.48-11.88-11.43-6.49-23.95-6.75-36.58-6.94-4.49-.07-6,1.01-5.89,5.77.34,13.96.12,27.93.12,41.9Z"/>
    <path class="cls-2" d="M1677.23,93.82c0-18.89.1-37.79-.08-56.68-.04-4.11.84-5.68,5.38-5.63,23.56.24,47.12.2,70.67.02,3.86-.03,5.63.84,5.07,4.93-.25,1.83-.25,3.75,0,5.59.58,4.42-.87,5.95-5.61,5.87-17.02-.31-34.05.02-51.08-.23-4.66-.07-6.64.89-6.37,6.07.45,8.61.29,17.26.03,25.88-.13,4.07,1.4,5.16,5.26,5.11,12.59-.18,25.19.09,37.78-.16,3.76-.08,4.65,1.05,4.7,4.68.13,10.36.31,10.37-10.1,10.38-10.73,0-21.46.14-32.19-.12-4.28-.11-5.6,1.25-5.47,5.56.31,10.25.31,20.53,0,30.78-.13,4.3,1.1,5.54,5.44,5.48,17.02-.25,34.06.1,51.08-.22,5.05-.09,6.89.93,6.63,6.39-.46,9.48-.08,9.49-9.66,9.49-21.93,0-43.85-.15-65.78.1-4.71.05-5.86-1.35-5.8-5.92.25-19.12.11-38.25.11-57.38Z"/>
    <path class="cls-2" d="M552.97,126.08c0,8.4-.05,16.8.03,25.19.03,2.75.02,4.77-3.67,5.3-17.72,2.52-35.41,3.45-52.59-2.49-25.56-8.84-37.2-28.37-39.23-54.21-3.06-38.91,20.73-65.96,59.72-68.69,8.87-.62,17.7-.32,26.56.14,3.94.2,4.99,1.55,5.02,5.41.11,12.18.29,12.08-11.98,11.35-10.5-.63-21.03-.83-31.26,2.15-16.39,4.78-26.17,15.67-28.67,32.58-2.29,15.48-.57,30.21,9.36,43.17,9.47,12.37,30.8,19.95,45.96,16.39,3.2-.75,2.6-2.72,2.61-4.68.06-12.13.27-24.26-.02-36.39-.11-4.42,1.29-5.43,5.53-5.42,12.65.05,12.65-.15,12.65,12.7,0,5.83,0,11.66,0,17.5Z"/>
    <path class="cls-2" d="M1090.92,93.64c0-18.64.16-37.29-.11-55.93-.07-4.82,1.14-6.36,6.16-6.22,11.97.33,11.97.05,11.96,12.12,0,30.53.11,61.06-.13,91.59-.04,4.91,1.29,6.28,6.17,6.17,13.97-.33,27.96,0,41.94-.21,4.28-.06,6.22.68,5.97,5.68-.6,12.16,1.39,10.05-9.84,10.13-18.64.12-37.29-.15-55.93.13-4.84.07-6.39-1.11-6.31-6.13.29-19.11.12-38.22.12-57.33Z"/>
    <path class="cls-2" d="M1020.64,347.85c-.42,17.96-11.36,29.35-27.79,28.93-16.46-.42-27.14-12.42-26.77-30.1.36-17.56,11.7-29,28.3-28.56,16.08.43,26.66,12.4,26.26,29.73ZM1012.28,346.08c-.02-.27-.08-2.61-.46-4.89-1.62-9.53-8.28-15.68-17.32-16.12-9.63-.47-16.59,4.98-19.13,14.76-1.51,5.82-1.17,11.6.58,17.19,3.57,11.41,17.18,16.53,27.14,10.3,7.04-4.41,9.12-11.36,9.19-21.24Z"/>
    <path class="cls-2" d="M1121.91,361.68q0,16.17-16.66,14.86c-17.73-1.4-27.61-12.37-27.47-30.49.12-15.58,10.79-26.32,27.52-27.57,3.47-.26,6.99.12,10.47-.07,3.51-.19,4.15,1.5,4.19,4.63.05,3.78-1.9,3.27-4.43,2.99-2.76-.31-5.59-.29-8.37-.16-13.76.65-21.28,8.61-20.74,21.85.56,13.7,8.77,21.53,22.16,21.72,4.19.06,5.25-1.44,5.02-5.24-.25-3.94.09-7.92-.09-11.88-.14-3.01.29-4.64,4.03-4.7,4.02-.06,4.69,1.6,4.43,4.98-.24,3.01-.05,6.05-.05,9.08Z"/>
    <path class="cls-2" d="M1622.47,376.21c-2.56,0-5.14-.18-7.69.04-3.98.35-4.6-1.81-4.51-5.09.11-3.99,2.55-2.79,4.81-2.56,6.27.63,12.55,1.14,18.73-.78,3.09-.96,5.66-2.57,6.02-6.01.34-3.17-1.76-5.27-4.31-6.65-5.11-2.77-10.34-5.32-15.51-7.99-7.69-3.97-11.71-10.1-10.38-16.51,1.57-7.55,7.48-10.26,14.19-11.62,5.99-1.22,12.07-.59,18.13-.54,4.07.03,3.64,2.56,3.64,5.15,0,3.55-2.34,2.57-4.38,2.35-5.11-.55-10.26-.8-15.34.07-3.47.6-7.2,1.41-7.88,5.69-.66,4.17,2.21,6.36,5.52,7.98,4.81,2.36,9.72,4.52,14.49,6.97,7.3,3.75,10.87,9.56,10.11,15.99-.78,6.59-5.46,11.14-13.82,12.82-3.86.78-7.87.82-11.8,1.19,0-.17-.02-.34-.02-.51Z"/>
    <path class="cls-2" d="M1263.6,376.54c-2.8-.13-5.6-.43-8.38-.35-4.08.13-3.61-2.71-3.64-5.23-.05-3.35,2-2.7,4.27-2.44,6.49.74,13.01,1.31,19.41-.72,3.09-.98,5.58-2.64,5.9-6.12.29-3.22-1.85-5.19-4.4-6.55-5.12-2.75-10.35-5.29-15.5-7.99-7.81-4.09-11.55-9.94-10.22-16.56,1.54-7.63,7.57-10.12,14.23-11.52,5.75-1.21,11.6-.6,17.43-.59,3.54,0,4.17,1.58,4.2,4.68.04,3.93-2.17,2.98-4.56,2.87-4.88-.22-9.79-.37-14.65,0-3.76.29-7.72,1.42-8.37,5.96-.59,4.13,2.44,6.24,5.74,7.85,5.02,2.44,10.08,4.83,15.07,7.33,6.46,3.23,9.94,8.4,9.22,15.74-.69,7.09-5.77,10.18-11.89,12.15-4.53,1.46-9.2,1.28-13.85,1.49Z"/>
    <path class="cls-2" d="M1542.92,376.54c-13.59-.1-24.33-3.57-29.56-15.53-4.93-11.28-4.94-22.8,3.53-32.82,8.29-9.8,19.66-10.4,31.36-9.69,3.42.21,2.45,2.62,2.65,4.53.26,2.41-.66,3.24-3.19,3.07-3.7-.24-7.48-.38-11.14.08-10.72,1.34-17.1,8.46-17.57,19.16-.54,12.18,5.26,20.41,16.06,22.83,4.38.98,8.8.94,13.2.38,2.33-.3,4.25-.57,4,2.75-.17,2.2.71,4.91-3.04,4.93-2.56.02-5.11.24-6.29.3Z"/>
    <path class="cls-2" d="M1370.19,351.27c0,6.99-.21,14,.1,20.98.17,3.89-1.84,3.88-4.68,4.02-3.14.16-3.92-.99-3.88-3.98.14-13.52-.13-27.05.18-40.56.1-4.53-1.05-6.46-5.73-5.92-2.53.29-5.14-.11-7.68.1-2.89.24-4.29-.53-4.21-3.77.07-2.79,1.13-3.57,3.77-3.55,11.89.1,23.78.1,35.67,0,2.61-.02,3.74.66,3.8,3.49.07,3.14-1.17,3.8-4.11,3.9-4.28.15-10.12-2.25-12.45,1.16-2.09,3.06-.69,8.54-.76,12.95-.06,3.73-.01,7.46,0,11.19Z"/>
    <path class="cls-2" d="M886.66,343.5c0,6.28.38,12.59-.12,18.83-.46,5.73,1.78,7.2,7.07,6.7,4.61-.43,9.3.02,13.95-.14,2.57-.09,3.81.48,3.82,3.4,0,2.97-.86,4.05-3.98,3.97-8.37-.21-16.75-.21-25.12-.03-3.07.07-4.03-.95-4.01-3.97.11-16.51.11-33.03,0-49.55-.02-2.83.48-4.29,3.78-4.17,2.91.11,4.83.22,4.69,4.02-.27,6.97-.08,13.95-.08,20.93Z"/>
    <path class="cls-2" d="M1444.35,347.28c0-8.15.14-16.3-.08-24.44-.09-3.42,1.08-4.3,4.39-4.33,3.59-.04,4.2,1.4,4.17,4.57-.13,16.29-.15,32.58,0,48.87.03,3.37-.97,4.33-4.36,4.36-3.65.03-4.23-1.48-4.17-4.59.16-8.14.05-16.29.05-24.44Z"/>
    <path class="cls-2" d="M1182.48,347.38c0-8.16.14-16.32-.07-24.48-.08-3.32.81-4.46,4.29-4.39,3.4.06,4.3,1.14,4.27,4.45-.15,16.32-.16,32.64.02,48.96.04,3.47-1.16,4.26-4.4,4.39-3.61.15-4.24-1.28-4.17-4.46.19-8.16.06-16.32.06-24.48Z"/>
  </g>
  <path class="cls-1" d="M148.02,0L0,49.15l149.91,327.9L299.81,50.09,148.02,0ZM148.02,109.61L22.89,57.94,148.02,14.88l128.87,43.06-126.98,278.55-1.88-226.88Z"/>
</svg>